<?xml version="1.0" encoding="UTF-8" ?>
<svg version="1.1" width="64" height="64" xmlns="http://www.w3.org/2000/svg" shape-rendering="crispEdges">
<rect x="29" y="7" width="1" height="1" fill="#0D0D0D" />
<rect x="34" y="7" width="1" height="1" fill="#0D0D0D" />
<rect x="35" y="8" width="1" height="1" fill="#0D0D0D" />
<rect x="40" y="9" width="1" height="1" fill="#0D0D0D" />
<rect x="50" y="9" width="1" height="1" fill="#0D0D0D" />
<rect x="22" y="10" width="1" height="1" fill="#0D0D0D" />
<rect x="36" y="10" width="1" height="1" fill="#0D0D0D" />
<rect x="32" y="11" width="2" height="1" fill="#0D0D0D" />
<rect x="35" y="11" width="1" height="1" fill="#0D0D0D" />
<rect x="39" y="11" width="1" height="1" fill="#0D0D0D" />
<rect x="30" y="12" width="1" height="1" fill="#0D0D0D" />
<rect x="34" y="12" width="1" height="2" fill="#0D0D0D" />
<rect x="44" y="12" width="1" height="1" fill="#0D0D0D" />
<rect x="19" y="13" width="1" height="1" fill="#0D0D0D" />
<rect x="22" y="13" width="1" height="1" fill="#0D0D0D" />
<rect x="25" y="13" width="1" height="1" fill="#0D0D0D" />
<rect x="27" y="13" width="4" height="1" fill="#000000" />
<rect x="31" y="13" width="1" height="1" fill="#0D0D0D" />
<rect x="32" y="13" width="2" height="3" fill="#000000" />
<rect x="43" y="13" width="1" height="1" fill="#0D0D0D" />
<rect x="51" y="13" width="1" height="1" fill="#0D0D0D" />
<rect x="14" y="14" width="1" height="1" fill="#0D0D0D" />
<rect x="23" y="14" width="5" height="1" fill="#000000" />
<rect x="28" y="14" width="1" height="1" fill="#0D0D0D" />
<rect x="29" y="14" width="3" height="1" fill="#000000" />
<rect x="34" y="14" width="5" height="2" fill="#000000" />
<rect x="39" y="14" width="1" height="1" fill="#0D0D0D" />
<rect x="40" y="14" width="1" height="2" fill="#000000" />
<rect x="41" y="14" width="1" height="1" fill="#0D0D0D" />
<rect x="17" y="15" width="1" height="1" fill="#0D0D0D" />
<rect x="21" y="15" width="4" height="1" fill="#000000" />
<rect x="25" y="15" width="1" height="1" fill="#0D0D0D" />
<rect x="26" y="15" width="1" height="2" fill="#000000" />
<rect x="27" y="15" width="1" height="1" fill="#0D0D0D" />
<rect x="28" y="15" width="2" height="1" fill="#000000" />
<rect x="30" y="15" width="1" height="1" fill="#272626" />
<rect x="31" y="15" width="1" height="4" fill="#000000" />
<rect x="39" y="15" width="1" height="6" fill="#000000" />
<rect x="41" y="15" width="4" height="1" fill="#000000" />
<rect x="19" y="16" width="4" height="1" fill="#000000" />
<rect x="23" y="16" width="1" height="1" fill="#0D0D0D" />
<rect x="24" y="16" width="2" height="3" fill="#000000" />
<rect x="27" y="16" width="2" height="1" fill="#272626" />
<rect x="29" y="16" width="2" height="3" fill="#000000" />
<rect x="32" y="16" width="1" height="1" fill="#0D0D0D" />
<rect x="33" y="16" width="3" height="1" fill="#000000" />
<rect x="36" y="16" width="1" height="1" fill="#272626" />
<rect x="37" y="16" width="2" height="3" fill="#000000" />
<rect x="40" y="16" width="1" height="1" fill="#272626" />
<rect x="41" y="16" width="1" height="1" fill="#000000" />
<rect x="42" y="16" width="1" height="1" fill="#0D0D0D" />
<rect x="43" y="16" width="3" height="1" fill="#000000" />
<rect x="52" y="16" width="1" height="1" fill="#0D0D0D" />
<rect x="11" y="17" width="2" height="1" fill="#FF0000" opacity="0.325490" />
<rect x="14" y="17" width="1" height="1" fill="#0D0D0D" />
<rect x="16" y="17" width="2" height="1" fill="#0D0D0D" />
<rect x="18" y="17" width="3" height="2" fill="#000000" />
<rect x="21" y="17" width="1" height="1" fill="#0D0D0D" />
<rect x="22" y="17" width="2" height="1" fill="#000000" />
<rect x="26" y="17" width="1" height="1" fill="#272626" />
<rect x="27" y="17" width="2" height="1" fill="#000000" />
<rect x="32" y="17" width="1" height="3" fill="#000000" />
<rect x="33" y="17" width="2" height="1" fill="#0D0D0D" />
<rect x="35" y="17" width="2" height="1" fill="#000000" />
<rect x="40" y="17" width="1" height="5" fill="#000000" />
<rect x="41" y="17" width="1" height="1" fill="#0D0D0D" />
<rect x="42" y="17" width="2" height="2" fill="#000000" />
<rect x="44" y="17" width="1" height="1" fill="#0D0D0D" />
<rect x="45" y="17" width="1" height="4" fill="#000000" />
<rect x="46" y="17" width="2" height="2" fill="#0D0D0D" />
<rect x="51" y="17" width="1" height="1" fill="#0D0D0D" />
<rect x="53" y="17" width="1" height="1" fill="#0D0D0D" />
<rect x="10" y="18" width="1" height="1" fill="#D40909" />
<rect x="11" y="18" width="1" height="3" fill="#E10707" />
<rect x="12" y="18" width="2" height="1" fill="#FF0000" opacity="0.325490" />
<rect x="17" y="18" width="1" height="4" fill="#000000" />
<rect x="21" y="18" width="2" height="3" fill="#000000" />
<rect x="23" y="18" width="1" height="1" fill="#272626" />
<rect x="26" y="18" width="1" height="3" fill="#000000" />
<rect x="27" y="18" width="2" height="1" fill="#0D0D0D" />
<rect x="33" y="18" width="3" height="1" fill="#000000" />
<rect x="36" y="18" width="1" height="2" fill="#0D0D0D" />
<rect x="41" y="18" width="1" height="1" fill="#000000" />
<rect x="44" y="18" width="1" height="1" fill="#000000" />
<rect x="52" y="18" width="1" height="4" fill="#FF0000" opacity="0.325490" />
<rect x="53" y="18" width="1" height="1" fill="#5B0909" />
<rect x="54" y="18" width="1" height="1" fill="#FF0000" opacity="0.325490" />
<rect x="12" y="19" width="1" height="1" fill="#FF0000" opacity="0.325490" />
<rect x="13" y="19" width="1" height="1" fill="#FF0000" opacity="0.545098" />
<rect x="14" y="19" width="1" height="1" fill="#FF0000" opacity="0.325490" />
<rect x="16" y="19" width="1" height="1" fill="#0D0D0D" />
<rect x="18" y="19" width="1" height="1" fill="#000000" />
<rect x="19" y="19" width="1" height="1" fill="#0D0D0D" />
<rect x="20" y="19" width="1" height="1" fill="#000000" />
<rect x="23" y="19" width="1" height="2" fill="#000000" />
<rect x="24" y="19" width="2" height="1" fill="#0D0D0D" />
<rect x="27" y="19" width="1" height="1" fill="#000000" />
<rect x="28" y="19" width="1" height="1" fill="#0D0D0D" />
<rect x="29" y="19" width="2" height="1" fill="#1A1A1A" />
<rect x="31" y="19" width="1" height="15" fill="#0D0D0D" />
<rect x="33" y="19" width="1" height="2" fill="#0D0D0D" />
<rect x="34" y="19" width="2" height="1" fill="#000000" />
<rect x="37" y="19" width="2" height="1" fill="#0D0D0D" />
<rect x="41" y="19" width="1" height="1" fill="#0D0D0D" />
<rect x="42" y="19" width="1" height="3" fill="#000000" />
<rect x="43" y="19" width="1" height="1" fill="#0D0D0D" />
<rect x="44" y="19" width="1" height="1" fill="#1A1A1A" />
<rect x="46" y="19" width="3" height="2" fill="#000000" />
<rect x="50" y="19" width="1" height="1" fill="#0D0D0D" />
<rect x="53" y="19" width="1" height="5" fill="#D40909" />
<rect x="54" y="19" width="1" height="1" fill="#5B0909" />
<rect x="55" y="19" width="3" height="1" fill="#FF0000" opacity="0.325490" />
<rect x="12" y="20" width="2" height="1" fill="#E10707" />
<rect x="14" y="20" width="1" height="1" fill="#FF0000" opacity="0.545098" />
<rect x="15" y="20" width="1" height="1" fill="#FF0000" opacity="0.325490" />
<rect x="16" y="20" width="1" height="1" fill="#000000" />
<rect x="18" y="20" width="1" height="1" fill="#0D0D0D" />
<rect x="19" y="20" width="1" height="1" fill="#000000" />
<rect x="20" y="20" width="1" height="1" fill="#0D0D0D" />
<rect x="24" y="20" width="1" height="1" fill="#000000" />
<rect x="25" y="20" width="1" height="1" fill="#272626" />
<rect x="27" y="20" width="1" height="7" fill="#0D0D0D" />
<rect x="28" y="20" width="1" height="1" fill="#000000" />
<rect x="29" y="20" width="2" height="1" fill="#0D0D0D" />
<rect x="32" y="20" width="1" height="12" fill="#0D0D0D" />
<rect x="34" y="20" width="1" height="1" fill="#000000" />
<rect x="35" y="20" width="1" height="1" fill="#0D0D0D" />
<rect x="36" y="20" width="1" height="2" fill="#000000" />
<rect x="37" y="20" width="1" height="8" fill="#0D0D0D" />
<rect x="38" y="20" width="1" height="1" fill="#000000" />
<rect x="41" y="20" width="1" height="2" fill="#000000" />
<rect x="43" y="20" width="2" height="1" fill="#000000" />
<rect x="49" y="20" width="1" height="2" fill="#000000" />
<rect x="54" y="20" width="1" height="1" fill="#FF0000" opacity="0.325490" />
<rect x="55" y="20" width="1" height="1" fill="#D40909" />
<rect x="56" y="20" width="2" height="1" fill="#FF0000" opacity="0.325490" />
<rect x="11" y="21" width="2" height="1" fill="#FF0000" opacity="0.325490" />
<rect x="13" y="21" width="1" height="1" fill="#D40909" />
<rect x="14" y="21" width="1" height="1" fill="#FF0000" opacity="0.325490" />
<rect x="15" y="21" width="1" height="1" fill="#8A0000" />
<rect x="16" y="21" width="1" height="2" fill="#530000" />
<rect x="18" y="21" width="1" height="1" fill="#000000" />
<rect x="19" y="21" width="1" height="2" fill="#0D0D0D" />
<rect x="20" y="21" width="1" height="2" fill="#000000" />
<rect x="21" y="21" width="3" height="1" fill="#0D0D0D" />
<rect x="24" y="21" width="1" height="1" fill="#272626" />
<rect x="25" y="21" width="2" height="2" fill="#0D0D0D" />
<rect x="28" y="21" width="1" height="1" fill="#1A1A1A" />
<rect x="29" y="21" width="1" height="1" fill="#272626" />
<rect x="30" y="21" width="1" height="9" fill="#0D0D0D" />
<rect x="33" y="21" width="2" height="1" fill="#1A1A1A" />
<rect x="35" y="21" width="1" height="1" fill="#000000" />
<rect x="38" y="21" width="1" height="1" fill="#272626" />
<rect x="39" y="21" width="1" height="1" fill="#0D0D0D" />
<rect x="43" y="21" width="1" height="1" fill="#000000" />
<rect x="44" y="21" width="1" height="1" fill="#1A1A1A" />
<rect x="45" y="21" width="1" height="1" fill="#0D0D0D" />
<rect x="46" y="21" width="2" height="2" fill="#000000" />
<rect x="48" y="21" width="1" height="1" fill="#0D0D0D" />
<rect x="50" y="21" width="1" height="1" fill="#000000" />
<rect x="54" y="21" width="2" height="1" fill="#E10707" />
<rect x="56" y="21" width="1" height="1" fill="#FF0000" opacity="0.325490" />
<rect x="11" y="22" width="1" height="1" fill="#FF0000" opacity="0.325490" />
<rect x="12" y="22" width="1" height="1" fill="#FF0000" opacity="0.545098" />
<rect x="13" y="22" width="2" height="2" fill="#E10707" />
<rect x="15" y="22" width="1" height="1" fill="#5B0909" />
<rect x="17" y="22" width="1" height="2" fill="#530000" />
<rect x="18" y="22" width="1" height="1" fill="#5B0909" />
<rect x="21" y="22" width="1" height="1" fill="#0D0D0D" />
<rect x="22" y="22" width="1" height="1" fill="#272626" />
<rect x="23" y="22" width="2" height="1" fill="#000000" />
<rect x="28" y="22" width="2" height="1" fill="#0D0D0D" />
<rect x="33" y="22" width="2" height="1" fill="#0D0D0D" />
<rect x="35" y="22" width="2" height="1" fill="#272626" />
<rect x="38" y="22" width="2" height="1" fill="#000000" />
<rect x="40" y="22" width="1" height="2" fill="#0D0D0D" />
<rect x="41" y="22" width="1" height="3" fill="#272626" />
<rect x="42" y="22" width="3" height="1" fill="#0D0D0D" />
<rect x="45" y="22" width="1" height="1" fill="#000000" />
<rect x="48" y="22" width="1" height="1" fill="#000000" />
<rect x="49" y="22" width="2" height="1" fill="#530000" />
<rect x="51" y="22" width="2" height="1" fill="#E10707" />
<rect x="54" y="22" width="1" height="1" fill="#D40909" />
<rect x="55" y="22" width="1" height="2" fill="#FF0000" opacity="0.325490" />
<rect x="12" y="23" width="1" height="1" fill="#FF0000" opacity="0.325490" />
<rect x="15" y="23" width="2" height="1" fill="#D40909" />
<rect x="18" y="23" width="3" height="1" fill="#530000" />
<rect x="21" y="23" width="1" height="1" fill="#5B0909" />
<rect x="22" y="23" width="1" height="1" fill="#0D0D0D" />
<rect x="23" y="23" width="1" height="1" fill="#000000" />
<rect x="24" y="23" width="1" height="3" fill="#0D0D0D" />
<rect x="25" y="23" width="1" height="1" fill="#000000" />
<rect x="26" y="23" width="1" height="3" fill="#0D0D0D" />
<rect x="28" y="23" width="1" height="1" fill="#272626" />
<rect x="29" y="23" width="1" height="8" fill="#0D0D0D" />
<rect x="33" y="23" width="1" height="2" fill="#0D0D0D" />
<rect x="34" y="23" width="1" height="1" fill="#000000" />
<rect x="35" y="23" width="2" height="2" fill="#0D0D0D" />
<rect x="38" y="23" width="1" height="1" fill="#272626" />
<rect x="39" y="23" width="1" height="2" fill="#0D0D0D" />
<rect x="42" y="23" width="2" height="1" fill="#0D0D0D" />
<rect x="44" y="23" width="1" height="1" fill="#272626" />
<rect x="45" y="23" width="1" height="1" fill="#1A1A1A" />
<rect x="46" y="23" width="1" height="1" fill="#0D0D0D" />
<rect x="47" y="23" width="3" height="1" fill="#530000" />
<rect x="50" y="23" width="3" height="1" fill="#D40909" />
<rect x="54" y="23" width="1" height="1" fill="#E10707" />
<rect x="13" y="24" width="1" height="2" fill="#000000" />
<rect x="14" y="24" width="2" height="1" fill="#530000" />
<rect x="16" y="24" width="5" height="1" fill="#D40909" />
<rect x="21" y="24" width="1" height="1" fill="#6D1A1A" />
<rect x="22" y="24" width="1" height="1" fill="#5B0909" />
<rect x="23" y="24" width="1" height="1" fill="#0D0D0D" />
<rect x="25" y="24" width="1" height="1" fill="#0D0D0D" />
<rect x="28" y="24" width="1" height="2" fill="#0D0D0D" />
<rect x="34" y="24" width="1" height="14" fill="#0D0D0D" />
<rect x="38" y="24" width="1" height="1" fill="#0D0D0D" />
<rect x="40" y="24" width="1" height="1" fill="#272626" />
<rect x="42" y="24" width="1" height="1" fill="#1A1A1A" />
<rect x="43" y="24" width="2" height="1" fill="#000000" />
<rect x="45" y="24" width="1" height="2" fill="#530000" />
<rect x="46" y="24" width="1" height="1" fill="#C10909" />
<rect x="47" y="24" width="1" height="1" fill="#530000" />
<rect x="48" y="24" width="4" height="1" fill="#D40909" />
<rect x="52" y="24" width="2" height="1" fill="#C10909" />
<rect x="54" y="24" width="1" height="1" fill="#FF0000" opacity="0.325490" />
<rect x="14" y="25" width="1" height="2" fill="#000000" />
<rect x="15" y="25" width="1" height="1" fill="#5B0909" />
<rect x="16" y="25" width="1" height="1" fill="#C10909" />
<rect x="17" y="25" width="5" height="1" fill="#D40909" />
<rect x="22" y="25" width="1" height="1" fill="#530000" />
<rect x="23" y="25" width="1" height="1" fill="#6D1A1A" />
<rect x="25" y="25" width="1" height="1" fill="#1A1A1A" />
<rect x="33" y="25" width="1" height="1" fill="#1A1A1A" />
<rect x="35" y="25" width="1" height="1" fill="#1A1A1A" />
<rect x="36" y="25" width="1" height="2" fill="#0D0D0D" />
<rect x="38" y="25" width="1" height="2" fill="#1A1A1A" />
<rect x="39" y="25" width="1" height="1" fill="#000000" />
<rect x="40" y="25" width="2" height="1" fill="#0D0D0D" />
<rect x="42" y="25" width="2" height="1" fill="#000000" />
<rect x="44" y="25" width="1" height="1" fill="#6D1A1A" />
<rect x="46" y="25" width="1" height="2" fill="#A40C0C" />
<rect x="47" y="25" width="3" height="1" fill="#D40909" />
<rect x="50" y="25" width="1" height="1" fill="#E10707" />
<rect x="51" y="25" width="1" height="1" fill="#530000" />
<rect x="52" y="25" width="1" height="1" fill="#FF0000" opacity="0.325490" />
<rect x="12" y="26" width="1" height="4" fill="#000000" />
<rect x="13" y="26" width="1" height="1" fill="#0D0D0D" />
<rect x="15" y="26" width="1" height="3" fill="#000000" />
<rect x="16" y="26" width="1" height="1" fill="#530000" />
<rect x="17" y="26" width="2" height="1" fill="#5B0909" />
<rect x="19" y="26" width="1" height="2" fill="#C10909" />
<rect x="20" y="26" width="1" height="1" fill="#A40C0C" />
<rect x="21" y="26" width="2" height="1" fill="#D40909" />
<rect x="23" y="26" width="1" height="1" fill="#530000" />
<rect x="24" y="26" width="2" height="2" fill="#5B0909" />
<rect x="26" y="26" width="1" height="1" fill="#272626" />
<rect x="28" y="26" width="1" height="1" fill="#1A1A1A" />
<rect x="33" y="26" width="1" height="3" fill="#0D0D0D" />
<rect x="35" y="26" width="1" height="1" fill="#000000" />
<rect x="39" y="26" width="1" height="1" fill="#0D0D0D" />
<rect x="40" y="26" width="1" height="1" fill="#1A1A1A" />
<rect x="41" y="26" width="1" height="1" fill="#0D0D0D" />
<rect x="42" y="26" width="2" height="1" fill="#5B0909" />
<rect x="44" y="26" width="1" height="1" fill="#C10909" />
<rect x="45" y="26" width="1" height="2" fill="#A40C0C" />
<rect x="47" y="26" width="1" height="1" fill="#D40909" />
<rect x="48" y="26" width="1" height="1" fill="#C10909" />
<rect x="49" y="26" width="2" height="1" fill="#530000" />
<rect x="51" y="26" width="2" height="2" fill="#000000" />
<rect x="11" y="27" width="1" height="1" fill="#0D0D0D" />
<rect x="13" y="27" width="1" height="7" fill="#000000" />
<rect x="14" y="27" width="1" height="1" fill="#0D0D0D" />
<rect x="16" y="27" width="1" height="1" fill="#000000" />
<rect x="17" y="27" width="2" height="1" fill="#0D0D0D" />
<rect x="20" y="27" width="1" height="2" fill="#530000" />
<rect x="21" y="27" width="1" height="2" fill="#5B0909" />
<rect x="22" y="27" width="1" height="1" fill="#C10909" />
<rect x="23" y="27" width="1" height="3" fill="#A40C0C" />
<rect x="26" y="27" width="2" height="1" fill="#5B0909" />
<rect x="28" y="27" width="1" height="2" fill="#0D0D0D" />
<rect x="35" y="27" width="1" height="2" fill="#0D0D0D" />
<rect x="36" y="27" width="1" height="1" fill="#1A1A1A" />
<rect x="38" y="27" width="1" height="1" fill="#0D0D0D" />
<rect x="39" y="27" width="1" height="1" fill="#5B0909" />
<rect x="40" y="27" width="1" height="1" fill="#641212" />
<rect x="41" y="27" width="2" height="1" fill="#5B0909" />
<rect x="43" y="27" width="2" height="2" fill="#A40C0C" />
<rect x="46" y="27" width="2" height="1" fill="#530000" />
<rect x="48" y="27" width="1" height="1" fill="#5B0909" />
<rect x="49" y="27" width="1" height="1" fill="#0D0D0D" />
<rect x="50" y="27" width="1" height="2" fill="#000000" />
<rect x="14" y="28" width="1" height="3" fill="#000000" />
<rect x="16" y="28" width="2" height="1" fill="#0D0D0D" />
<rect x="18" y="28" width="1" height="1" fill="#1A1A1A" />
<rect x="19" y="28" width="1" height="1" fill="#0D0D0D" />
<rect x="22" y="28" width="1" height="1" fill="#A40C0C" />
<rect x="24" y="28" width="4" height="1" fill="#A40C0C" />
<rect x="36" y="28" width="1" height="3" fill="#0D0D0D" />
<rect x="37" y="28" width="1" height="1" fill="#1A1A1A" />
<rect x="38" y="28" width="1" height="1" fill="#641212" />
<rect x="39" y="28" width="1" height="1" fill="#C10909" />
<rect x="40" y="28" width="3" height="1" fill="#A40C0C" />
<rect x="45" y="28" width="2" height="1" fill="#641212" />
<rect x="47" y="28" width="3" height="4" fill="#000000" />
<rect x="51" y="28" width="1" height="1" fill="#0D0D0D" />
<rect x="52" y="28" width="1" height="4" fill="#000000" />
<rect x="8" y="29" width="1" height="1" fill="#0D0D0D" />
<rect x="15" y="29" width="2" height="1" fill="#0D0D0D" />
<rect x="17" y="29" width="1" height="1" fill="#272626" />
<rect x="18" y="29" width="2" height="1" fill="#000000" />
<rect x="20" y="29" width="1" height="5" fill="#0D0D0D" />
<rect x="21" y="29" width="1" height="1" fill="#641212" />
<rect x="22" y="29" width="1" height="1" fill="#5B0909" />
<rect x="24" y="29" width="2" height="1" fill="#A40C0C" />
<rect x="26" y="29" width="2" height="1" fill="#7D1A1A" />
<rect x="28" y="29" width="1" height="4" fill="#751F1F" />
<rect x="33" y="29" width="1" height="1" fill="#1A1A1A" />
<rect x="35" y="29" width="1" height="1" fill="#1A1A1A" />
<rect x="37" y="29" width="2" height="1" fill="#A11515" />
<rect x="39" y="29" width="2" height="2" fill="#7D1A1A" />
<rect x="41" y="29" width="2" height="1" fill="#A40C0C" />
<rect x="43" y="29" width="3" height="1" fill="#5B0909" />
<rect x="46" y="29" width="1" height="1" fill="#000000" />
<rect x="50" y="29" width="1" height="1" fill="#1A1A1A" />
<rect x="51" y="29" width="1" height="4" fill="#000000" />
<rect x="12" y="30" width="1" height="1" fill="#0D0D0D" />
<rect x="15" y="30" width="3" height="2" fill="#000000" />
<rect x="18" y="30" width="1" height="1" fill="#0D0D0D" />
<rect x="19" y="30" width="1" height="1" fill="#000000" />
<rect x="21" y="30" width="1" height="1" fill="#0D0D0D" />
<rect x="22" y="30" width="1" height="1" fill="#530000" />
<rect x="23" y="30" width="2" height="1" fill="#5B0909" />
<rect x="25" y="30" width="2" height="1" fill="#7D1A1A" />
<rect x="27" y="30" width="1" height="3" fill="#751F1F" />
<rect x="30" y="30" width="1" height="1" fill="#1A1A1A" />
<rect x="33" y="30" width="1" height="7" fill="#0D0D0D" />
<rect x="35" y="30" width="1" height="6" fill="#0D0D0D" />
<rect x="37" y="30" width="2" height="3" fill="#751F1F" />
<rect x="41" y="30" width="1" height="3" fill="#751F1F" />
<rect x="42" y="30" width="1" height="1" fill="#5B0909" />
<rect x="43" y="30" width="1" height="1" fill="#6D1A1A" />
<rect x="44" y="30" width="1" height="1" fill="#000000" />
<rect x="45" y="30" width="1" height="1" fill="#1A1A1A" />
<rect x="46" y="30" width="1" height="1" fill="#0D0D0D" />
<rect x="50" y="30" width="1" height="4" fill="#000000" />
<rect x="12" y="31" width="1" height="2" fill="#000000" />
<rect x="14" y="31" width="1" height="1" fill="#0D0D0D" />
<rect x="18" y="31" width="1" height="1" fill="#000000" />
<rect x="19" y="31" width="1" height="3" fill="#0D0D0D" />
<rect x="21" y="31" width="1" height="1" fill="#000000" />
<rect x="22" y="31" width="1" height="1" fill="#272626" />
<rect x="23" y="31" width="1" height="4" fill="#0D0D0D" />
<rect x="24" y="31" width="3" height="1" fill="#751F1F" />
<rect x="29" y="31" width="1" height="1" fill="#272626" />
<rect x="30" y="31" width="1" height="4" fill="#0D0D0D" />
<rect x="36" y="31" width="1" height="1" fill="#1A1A1A" />
<rect x="39" y="31" width="2" height="2" fill="#751F1F" />
<rect x="42" y="31" width="2" height="4" fill="#0D0D0D" />
<rect x="44" y="31" width="1" height="1" fill="#1A1A1A" />
<rect x="45" y="31" width="1" height="1" fill="#0D0D0D" />
<rect x="46" y="31" width="1" height="1" fill="#000000" />
<rect x="53" y="31" width="1" height="1" fill="#0D0D0D" />
<rect x="57" y="31" width="1" height="1" fill="#0D0D0D" />
<rect x="10" y="32" width="1" height="1" fill="#0D0D0D" />
<rect x="11" y="32" width="1" height="4" fill="#000000" />
<rect x="14" y="32" width="3" height="2" fill="#000000" />
<rect x="17" y="32" width="1" height="4" fill="#0D0D0D" />
<rect x="18" y="32" width="1" height="1" fill="#1A1A1A" />
<rect x="21" y="32" width="2" height="2" fill="#0D0D0D" />
<rect x="24" y="32" width="1" height="3" fill="#0D0D0D" />
<rect x="25" y="32" width="2" height="1" fill="#751F1F" />
<rect x="29" y="32" width="1" height="2" fill="#0D0D0D" />
<rect x="32" y="32" width="1" height="2" fill="#1A1A1A" />
<rect x="36" y="32" width="1" height="3" fill="#0D0D0D" />
<rect x="44" y="32" width="1" height="1" fill="#0D0D0D" />
<rect x="45" y="32" width="1" height="2" fill="#1A1A1A" />
<rect x="46" y="32" width="2" height="1" fill="#0D0D0D" />
<rect x="48" y="32" width="1" height="1" fill="#1A1A1A" />
<rect x="49" y="32" width="1" height="1" fill="#0D0D0D" />
<rect x="52" y="32" width="1" height="1" fill="#0D0D0D" />
<rect x="12" y="33" width="1" height="2" fill="#0D0D0D" />
<rect x="18" y="33" width="1" height="1" fill="#272626" />
<rect x="25" y="33" width="1" height="4" fill="#0D0D0D" />
<rect x="26" y="33" width="1" height="1" fill="#1A1A1A" />
<rect x="27" y="33" width="2" height="4" fill="#0D0D0D" />
<rect x="37" y="33" width="1" height="1" fill="#751F1F" />
<rect x="38" y="33" width="4" height="1" fill="#0D0D0D" />
<rect x="44" y="33" width="1" height="2" fill="#1A1A1A" />
<rect x="46" y="33" width="4" height="1" fill="#000000" />
<rect x="51" y="33" width="1" height="1" fill="#0D0D0D" />
<rect x="52" y="33" width="1" height="4" fill="#000000" />
<rect x="56" y="33" width="1" height="1" fill="#0D0D0D" />
<rect x="13" y="34" width="2" height="1" fill="#0D0D0D" />
<rect x="15" y="34" width="2" height="1" fill="#000000" />
<rect x="18" y="34" width="1" height="5" fill="#0D0D0D" />
<rect x="19" y="34" width="1" height="1" fill="#000000" />
<rect x="20" y="34" width="1" height="1" fill="#1A1A1A" />
<rect x="21" y="34" width="1" height="1" fill="#0D0D0D" />
<rect x="22" y="34" width="1" height="1" fill="#1A1A1A" />
<rect x="26" y="34" width="1" height="5" fill="#0D0D0D" />
<rect x="29" y="34" width="1" height="1" fill="#1A1A1A" />
<rect x="31" y="34" width="1" height="1" fill="#1A1A1A" />
<rect x="32" y="34" width="1" height="4" fill="#0D0D0D" />
<rect x="37" y="34" width="1" height="1" fill="#0D0D0D" />
<rect x="38" y="34" width="1" height="1" fill="#1A1A1A" />
<rect x="39" y="34" width="3" height="1" fill="#0D0D0D" />
<rect x="45" y="34" width="2" height="1" fill="#000000" />
<rect x="47" y="34" width="2" height="1" fill="#0D0D0D" />
<rect x="49" y="34" width="1" height="1" fill="#000000" />
<rect x="50" y="34" width="1" height="1" fill="#0D0D0D" />
<rect x="51" y="34" width="1" height="1" fill="#000000" />
<rect x="10" y="35" width="1" height="1" fill="#0D0D0D" />
<rect x="12" y="35" width="1" height="2" fill="#000000" />
<rect x="13" y="35" width="1" height="2" fill="#0D0D0D" />
<rect x="14" y="35" width="1" height="4" fill="#000000" />
<rect x="15" y="35" width="1" height="2" fill="#0D0D0D" />
<rect x="16" y="35" width="1" height="1" fill="#000000" />
<rect x="19" y="35" width="1" height="2" fill="#1A1A1A" />
<rect x="20" y="35" width="1" height="2" fill="#641212" />
<rect x="21" y="35" width="3" height="1" fill="#5B0909" />
<rect x="24" y="35" width="1" height="1" fill="#1A1A1A" />
<rect x="29" y="35" width="1" height="1" fill="#0D0D0D" />
<rect x="30" y="35" width="2" height="1" fill="#5B0909" />
<rect x="36" y="35" width="1" height="1" fill="#5B0909" />
<rect x="37" y="35" width="1" height="1" fill="#530000" />
<rect x="38" y="35" width="1" height="5" fill="#5B0909" />
<rect x="39" y="35" width="1" height="1" fill="#1A1A1A" />
<rect x="40" y="35" width="2" height="1" fill="#0D0D0D" />
<rect x="42" y="35" width="2" height="1" fill="#5B0909" />
<rect x="44" y="35" width="1" height="1" fill="#530000" />
<rect x="45" y="35" width="1" height="2" fill="#5B0909" />
<rect x="46" y="35" width="2" height="1" fill="#000000" />
<rect x="48" y="35" width="2" height="1" fill="#0D0D0D" />
<rect x="50" y="35" width="1" height="8" fill="#000000" />
<rect x="51" y="35" width="1" height="1" fill="#0D0D0D" />
<rect x="11" y="36" width="1" height="1" fill="#0D0D0D" />
<rect x="16" y="36" width="1" height="3" fill="#0D0D0D" />
<rect x="17" y="36" width="1" height="1" fill="#272626" />
<rect x="21" y="36" width="2" height="1" fill="#D40909" />
<rect x="23" y="36" width="1" height="1" fill="#A11515" />
<rect x="24" y="36" width="1" height="1" fill="#5B0909" />
<rect x="29" y="36" width="1" height="1" fill="#5B0909" />
<rect x="30" y="36" width="2" height="1" fill="#A11515" />
<rect x="35" y="36" width="1" height="1" fill="#000000" />
<rect x="36" y="36" width="1" height="1" fill="#A11515" />
<rect x="37" y="36" width="1" height="1" fill="#751F1F" />
<rect x="39" y="36" width="2" height="1" fill="#0D0D0D" />
<rect x="41" y="36" width="1" height="1" fill="#6D1A1A" />
<rect x="42" y="36" width="1" height="1" fill="#A11515" />
<rect x="43" y="36" width="2" height="1" fill="#751F1F" />
<rect x="46" y="36" width="1" height="1" fill="#000000" />
<rect x="47" y="36" width="1" height="1" fill="#0D0D0D" />
<rect x="48" y="36" width="2" height="1" fill="#000000" />
<rect x="51" y="36" width="1" height="6" fill="#000000" />
<rect x="11" y="37" width="1" height="2" fill="#000000" />
<rect x="12" y="37" width="1" height="3" fill="#0D0D0D" />
<rect x="13" y="37" width="1" height="3" fill="#000000" />
<rect x="15" y="37" width="1" height="3" fill="#000000" />
<rect x="17" y="37" width="1" height="1" fill="#0D0D0D" />
<rect x="19" y="37" width="1" height="3" fill="#0D0D0D" />
<rect x="20" y="37" width="1" height="1" fill="#5B0909" />
<rect x="21" y="37" width="1" height="1" fill="#C10909" />
<rect x="22" y="37" width="1" height="1" fill="#D40909" />
<rect x="23" y="37" width="1" height="1" fill="#751F1F" />
<rect x="24" y="37" width="1" height="1" fill="#641212" />
<rect x="25" y="37" width="1" height="1" fill="#5B0909" />
<rect x="27" y="37" width="1" height="1" fill="#1A1A1A" />
<rect x="28" y="37" width="1" height="1" fill="#5B0909" />
<rect x="29" y="37" width="1" height="1" fill="#C10909" />
<rect x="30" y="37" width="1" height="1" fill="#A40C0C" />
<rect x="31" y="37" width="1" height="2" fill="#C10909" />
<rect x="33" y="37" width="1" height="1" fill="#272626" />
<rect x="35" y="37" width="1" height="1" fill="#5B0909" />
<rect x="36" y="37" width="1" height="1" fill="#C10909" />
<rect x="37" y="37" width="1" height="4" fill="#A40C0C" />
<rect x="39" y="37" width="1" height="2" fill="#0D0D0D" />
<rect x="40" y="37" width="1" height="1" fill="#000000" />
<rect x="41" y="37" width="1" height="1" fill="#641212" />
<rect x="42" y="37" width="1" height="1" fill="#751F1F" />
<rect x="43" y="37" width="1" height="2" fill="#D40909" />
<rect x="44" y="37" width="1" height="1" fill="#000000" />
<rect x="45" y="37" width="1" height="2" fill="#530000" />
<rect x="46" y="37" width="1" height="1" fill="#0D0D0D" />
<rect x="47" y="37" width="1" height="3" fill="#000000" />
<rect x="48" y="37" width="2" height="1" fill="#0D0D0D" />
<rect x="52" y="37" width="1" height="1" fill="#0D0D0D" />
<rect x="17" y="38" width="1" height="1" fill="#000000" />
<rect x="20" y="38" width="1" height="1" fill="#000000" />
<rect x="21" y="38" width="1" height="1" fill="#5B0909" />
<rect x="22" y="38" width="1" height="1" fill="#C10909" />
<rect x="23" y="38" width="1" height="2" fill="#A40C0C" />
<rect x="24" y="38" width="1" height="2" fill="#D40909" />
<rect x="25" y="38" width="1" height="1" fill="#641212" />
<rect x="27" y="38" width="1" height="2" fill="#5B0909" />
<rect x="28" y="38" width="1" height="1" fill="#C10909" />
<rect x="29" y="38" width="2" height="1" fill="#D40909" />
<rect x="32" y="38" width="1" height="1" fill="#5B0909" />
<rect x="33" y="38" width="1" height="1" fill="#0D0D0D" />
<rect x="34" y="38" width="1" height="2" fill="#5B0909" />
<rect x="35" y="38" width="1" height="1" fill="#A11515" />
<rect x="36" y="38" width="1" height="2" fill="#D40909" />
<rect x="40" y="38" width="1" height="1" fill="#5B0909" />
<rect x="41" y="38" width="1" height="1" fill="#C10909" />
<rect x="42" y="38" width="1" height="1" fill="#D40909" />
<rect x="44" y="38" width="1" height="1" fill="#6D1A1A" />
<rect x="46" y="38" width="1" height="2" fill="#000000" />
<rect x="48" y="38" width="2" height="3" fill="#000000" />
<rect x="52" y="38" width="1" height="1" fill="#000000" />
<rect x="53" y="38" width="1" height="1" fill="#0D0D0D" />
<rect x="8" y="39" width="1" height="1" fill="#0D0D0D" />
<rect x="10" y="39" width="1" height="2" fill="#0D0D0D" />
<rect x="14" y="39" width="1" height="2" fill="#0D0D0D" />
<rect x="16" y="39" width="1" height="1" fill="#1A1A1A" />
<rect x="17" y="39" width="1" height="1" fill="#0D0D0D" />
<rect x="18" y="39" width="1" height="1" fill="#000000" />
<rect x="20" y="39" width="1" height="1" fill="#0D0D0D" />
<rect x="21" y="39" width="1" height="2" fill="#000000" />
<rect x="22" y="39" width="1" height="1" fill="#6D1A1A" />
<rect x="25" y="39" width="1" height="1" fill="#6D1A1A" />
<rect x="26" y="39" width="1" height="1" fill="#5B0909" />
<rect x="28" y="39" width="1" height="1" fill="#A40C0C" />
<rect x="29" y="39" width="1" height="1" fill="#D40909" />
<rect x="30" y="39" width="1" height="1" fill="#0D0D0D" />
<rect x="31" y="39" width="1" height="2" fill="#D40909" />
<rect x="32" y="39" width="1" height="1" fill="#C10909" />
<rect x="33" y="39" width="1" height="1" fill="#5B0909" />
<rect x="35" y="39" width="1" height="2" fill="#D40909" />
<rect x="39" y="39" width="1" height="1" fill="#6D1A1A" />
<rect x="40" y="39" width="1" height="1" fill="#E10707" />
<rect x="41" y="39" width="1" height="1" fill="#D40909" />
<rect x="42" y="39" width="1" height="1" fill="#272626" />
<rect x="43" y="39" width="1" height="2" fill="#5B0909" />
<rect x="44" y="39" width="1" height="1" fill="#641212" />
<rect x="45" y="39" width="1" height="1" fill="#000000" />
<rect x="12" y="40" width="1" height="2" fill="#000000" />
<rect x="13" y="40" width="1" height="1" fill="#0D0D0D" />
<rect x="15" y="40" width="1" height="2" fill="#0D0D0D" />
<rect x="16" y="40" width="2" height="2" fill="#000000" />
<rect x="18" y="40" width="2" height="1" fill="#1A1A1A" />
<rect x="20" y="40" width="1" height="1" fill="#000000" />
<rect x="22" y="40" width="1" height="1" fill="#530000" />
<rect x="23" y="40" width="1" height="1" fill="#6D1A1A" />
<rect x="24" y="40" width="1" height="1" fill="#A40C0C" />
<rect x="25" y="40" width="1" height="1" fill="#5B0909" />
<rect x="26" y="40" width="1" height="1" fill="#641212" />
<rect x="27" y="40" width="1" height="1" fill="#0D0D0D" />
<rect x="28" y="40" width="1" height="2" fill="#D40909" />
<rect x="29" y="40" width="1" height="1" fill="#751F1F" />
<rect x="30" y="40" width="1" height="1" fill="#6D1A1A" />
<rect x="32" y="40" width="1" height="2" fill="#D40909" />
<rect x="33" y="40" width="1" height="1" fill="#0D0D0D" />
<rect x="34" y="40" width="1" height="1" fill="#751F1F" />
<rect x="36" y="40" width="1" height="1" fill="#6D1A1A" />
<rect x="38" y="40" width="1" height="2" fill="#D40909" />
<rect x="39" y="40" width="1" height="1" fill="#1A1A1A" />
<rect x="40" y="40" width="1" height="1" fill="#A40C0C" />
<rect x="41" y="40" width="1" height="1" fill="#751F1F" />
<rect x="42" y="40" width="1" height="2" fill="#530000" />
<rect x="44" y="40" width="1" height="3" fill="#000000" />
<rect x="45" y="40" width="3" height="1" fill="#0D0D0D" />
<rect x="13" y="41" width="2" height="3" fill="#000000" />
<rect x="18" y="41" width="1" height="1" fill="#1A1A1A" />
<rect x="19" y="41" width="1" height="1" fill="#000000" />
<rect x="20" y="41" width="1" height="1" fill="#1A1A1A" />
<rect x="21" y="41" width="2" height="1" fill="#0D0D0D" />
<rect x="23" y="41" width="1" height="1" fill="#5B0909" />
<rect x="24" y="41" width="1" height="1" fill="#D40909" />
<rect x="25" y="41" width="1" height="1" fill="#751F1F" />
<rect x="26" y="41" width="1" height="1" fill="#5B0909" />
<rect x="27" y="41" width="1" height="2" fill="#D40909" />
<rect x="29" y="41" width="1" height="2" fill="#5B0909" />
<rect x="30" y="41" width="1" height="1" fill="#641212" />
<rect x="31" y="41" width="1" height="1" fill="#751F1F" />
<rect x="33" y="41" width="2" height="1" fill="#D40909" />
<rect x="35" y="41" width="1" height="1" fill="#C10909" />
<rect x="36" y="41" width="1" height="1" fill="#5B0909" />
<rect x="37" y="41" width="1" height="1" fill="#751F1F" />
<rect x="39" y="41" width="2" height="1" fill="#D40909" />
<rect x="41" y="41" width="1" height="1" fill="#5B0909" />
<rect x="43" y="41" width="1" height="1" fill="#0D0D0D" />
<rect x="45" y="41" width="3" height="1" fill="#000000" />
<rect x="48" y="41" width="1" height="2" fill="#0D0D0D" />
<rect x="49" y="41" width="1" height="2" fill="#000000" />
<rect x="52" y="41" width="1" height="1" fill="#0D0D0D" />
<rect x="12" y="42" width="1" height="1" fill="#0D0D0D" />
<rect x="15" y="42" width="1" height="3" fill="#000000" />
<rect x="16" y="42" width="1" height="1" fill="#0D0D0D" />
<rect x="17" y="42" width="2" height="1" fill="#000000" />
<rect x="19" y="42" width="1" height="1" fill="#1A1A1A" />
<rect x="20" y="42" width="1" height="1" fill="#000000" />
<rect x="21" y="42" width="1" height="1" fill="#272626" />
<rect x="22" y="42" width="1" height="1" fill="#0D0D0D" />
<rect x="23" y="42" width="1" height="1" fill="#6D1A1A" />
<rect x="24" y="42" width="1" height="1" fill="#E10707" />
<rect x="25" y="42" width="1" height="1" fill="#D40909" />
<rect x="26" y="42" width="1" height="1" fill="#1A1A1A" />
<rect x="28" y="42" width="1" height="1" fill="#A40C0C" />
<rect x="30" y="42" width="1" height="1" fill="#5B0909" />
<rect x="31" y="42" width="1" height="1" fill="#641212" />
<rect x="32" y="42" width="1" height="1" fill="#A40C0C" />
<rect x="33" y="42" width="1" height="1" fill="#D40909" />
<rect x="34" y="42" width="1" height="1" fill="#A40C0C" />
<rect x="35" y="42" width="2" height="1" fill="#6D1A1A" />
<rect x="37" y="42" width="1" height="1" fill="#641212" />
<rect x="38" y="42" width="3" height="1" fill="#751F1F" />
<rect x="41" y="42" width="1" height="1" fill="#530000" />
<rect x="42" y="42" width="1" height="1" fill="#272626" />
<rect x="43" y="42" width="1" height="1" fill="#1A1A1A" />
<rect x="45" y="42" width="1" height="6" fill="#000000" />
<rect x="46" y="42" width="1" height="1" fill="#0D0D0D" />
<rect x="47" y="42" width="1" height="1" fill="#000000" />
<rect x="12" y="43" width="1" height="2" fill="#000000" />
<rect x="16" y="43" width="2" height="1" fill="#000000" />
<rect x="18" y="43" width="1" height="1" fill="#1A1A1A" />
<rect x="19" y="43" width="1" height="1" fill="#272626" />
<rect x="20" y="43" width="1" height="1" fill="#1A1A1A" />
<rect x="21" y="43" width="2" height="1" fill="#000000" />
<rect x="23" y="43" width="1" height="1" fill="#1A1A1A" />
<rect x="24" y="43" width="1" height="1" fill="#6D1A1A" />
<rect x="25" y="43" width="3" height="1" fill="#A40C0C" />
<rect x="28" y="43" width="1" height="1" fill="#A11515" />
<rect x="29" y="43" width="1" height="1" fill="#530000" />
<rect x="30" y="43" width="1" height="1" fill="#000000" />
<rect x="31" y="43" width="1" height="1" fill="#6D1A1A" />
<rect x="32" y="43" width="1" height="2" fill="#A11515" />
<rect x="33" y="43" width="1" height="1" fill="#751F1F" />
<rect x="34" y="43" width="1" height="1" fill="#6D1A1A" />
<rect x="35" y="43" width="1" height="1" fill="#5B0909" />
<rect x="36" y="43" width="1" height="1" fill="#272626" />
<rect x="37" y="43" width="1" height="1" fill="#6D1A1A" />
<rect x="38" y="43" width="1" height="1" fill="#A11515" />
<rect x="39" y="43" width="1" height="1" fill="#751F1F" />
<rect x="40" y="43" width="1" height="2" fill="#5B0909" />
<rect x="41" y="43" width="1" height="1" fill="#641212" />
<rect x="42" y="43" width="1" height="1" fill="#1A1A1A" />
<rect x="43" y="43" width="1" height="1" fill="#000000" />
<rect x="44" y="43" width="1" height="1" fill="#0D0D0D" />
<rect x="46" y="43" width="1" height="1" fill="#272626" />
<rect x="47" y="43" width="1" height="2" fill="#0D0D0D" />
<rect x="48" y="43" width="1" height="3" fill="#000000" />
<rect x="49" y="43" width="2" height="1" fill="#0D0D0D" />
<rect x="53" y="43" width="1" height="1" fill="#0D0D0D" />
<rect x="13" y="44" width="1" height="1" fill="#000000" />
<rect x="14" y="44" width="1" height="1" fill="#0D0D0D" />
<rect x="16" y="44" width="1" height="1" fill="#1A1A1A" />
<rect x="17" y="44" width="4" height="2" fill="#000000" />
<rect x="21" y="44" width="1" height="1" fill="#0D0D0D" />
<rect x="22" y="44" width="2" height="5" fill="#000000" />
<rect x="24" y="44" width="1" height="1" fill="#530000" />
<rect x="25" y="44" width="1" height="1" fill="#5B0909" />
<rect x="26" y="44" width="2" height="1" fill="#751F1F" />
<rect x="28" y="44" width="1" height="2" fill="#5B0909" />
<rect x="29" y="44" width="1" height="1" fill="#000000" />
<rect x="30" y="44" width="1" height="1" fill="#272626" />
<rect x="31" y="44" width="1" height="2" fill="#0D0D0D" />
<rect x="33" y="44" width="2" height="1" fill="#530000" />
<rect x="35" y="44" width="1" height="1" fill="#272626" />
<rect x="36" y="44" width="2" height="1" fill="#0D0D0D" />
<rect x="38" y="44" width="1" height="1" fill="#530000" />
<rect x="39" y="44" width="1" height="1" fill="#6D1A1A" />
<rect x="41" y="44" width="2" height="1" fill="#000000" />
<rect x="43" y="44" width="1" height="1" fill="#0D0D0D" />
<rect x="44" y="44" width="1" height="2" fill="#000000" />
<rect x="46" y="44" width="1" height="4" fill="#000000" />
<rect x="49" y="44" width="1" height="1" fill="#000000" />
<rect x="51" y="44" width="2" height="1" fill="#0D0D0D" />
<rect x="10" y="45" width="1" height="1" fill="#0D0D0D" />
<rect x="13" y="45" width="1" height="1" fill="#0D0D0D" />
<rect x="14" y="45" width="1" height="4" fill="#000000" />
<rect x="15" y="45" width="1" height="1" fill="#0D0D0D" />
<rect x="16" y="45" width="1" height="6" fill="#000000" />
<rect x="21" y="45" width="1" height="3" fill="#000000" />
<rect x="24" y="45" width="1" height="1" fill="#000000" />
<rect x="25" y="45" width="1" height="1" fill="#641212" />
<rect x="26" y="45" width="2" height="1" fill="#A11515" />
<rect x="29" y="45" width="1" height="2" fill="#272626" />
<rect x="30" y="45" width="1" height="1" fill="#1A1A1A" />
<rect x="32" y="45" width="2" height="2" fill="#000000" />
<rect x="34" y="45" width="1" height="1" fill="#0D0D0D" />
<rect x="35" y="45" width="1" height="1" fill="#000000" />
<rect x="36" y="45" width="1" height="1" fill="#0D0D0D" />
<rect x="37" y="45" width="1" height="1" fill="#272626" />
<rect x="38" y="45" width="1" height="1" fill="#000000" />
<rect x="39" y="45" width="1" height="1" fill="#0D0D0D" />
<rect x="40" y="45" width="1" height="1" fill="#272626" />
<rect x="41" y="45" width="2" height="1" fill="#0D0D0D" />
<rect x="43" y="45" width="1" height="4" fill="#000000" />
<rect x="47" y="45" width="1" height="1" fill="#272626" />
<rect x="13" y="46" width="1" height="1" fill="#000000" />
<rect x="15" y="46" width="1" height="3" fill="#000000" />
<rect x="17" y="46" width="1" height="1" fill="#0D0D0D" />
<rect x="18" y="46" width="3" height="1" fill="#000000" />
<rect x="24" y="46" width="1" height="1" fill="#0D0D0D" />
<rect x="25" y="46" width="1" height="1" fill="#000000" />
<rect x="26" y="46" width="1" height="1" fill="#272626" />
<rect x="27" y="46" width="1" height="1" fill="#000000" />
<rect x="28" y="46" width="1" height="1" fill="#272626" />
<rect x="30" y="46" width="1" height="1" fill="#272626" />
<rect x="31" y="46" width="1" height="1" fill="#000000" />
<rect x="34" y="46" width="1" height="3" fill="#000000" />
<rect x="35" y="46" width="2" height="2" fill="#272626" />
<rect x="37" y="46" width="1" height="4" fill="#000000" />
<rect x="38" y="46" width="2" height="1" fill="#272626" />
<rect x="40" y="46" width="2" height="2" fill="#000000" />
<rect x="42" y="46" width="1" height="1" fill="#272626" />
<rect x="44" y="46" width="1" height="1" fill="#0D0D0D" />
<rect x="47" y="46" width="1" height="1" fill="#000000" />
<rect x="48" y="46" width="1" height="1" fill="#0D0D0D" />
<rect x="17" y="47" width="2" height="4" fill="#000000" />
<rect x="19" y="47" width="1" height="1" fill="#0D0D0D" />
<rect x="20" y="47" width="1" height="1" fill="#272626" />
<rect x="24" y="47" width="1" height="3" fill="#000000" />
<rect x="25" y="47" width="1" height="1" fill="#0D0D0D" />
<rect x="26" y="47" width="1" height="1" fill="#1A1A1A" />
<rect x="27" y="47" width="1" height="1" fill="#272626" />
<rect x="28" y="47" width="2" height="1" fill="#000000" />
<rect x="30" y="47" width="1" height="1" fill="#0D0D0D" />
<rect x="31" y="47" width="1" height="2" fill="#272626" />
<rect x="32" y="47" width="1" height="2" fill="#0D0D0D" />
<rect x="33" y="47" width="1" height="1" fill="#272626" />
<rect x="38" y="47" width="1" height="3" fill="#000000" />
<rect x="39" y="47" width="1" height="1" fill="#0D0D0D" />
<rect x="42" y="47" width="1" height="3" fill="#000000" />
<rect x="44" y="47" width="1" height="2" fill="#000000" />
<rect x="49" y="47" width="1" height="1" fill="#0D0D0D" />
<rect x="51" y="47" width="1" height="1" fill="#0D0D0D" />
<rect x="19" y="48" width="1" height="1" fill="#272626" />
<rect x="20" y="48" width="1" height="4" fill="#000000" />
<rect x="21" y="48" width="1" height="1" fill="#0D0D0D" />
<rect x="25" y="48" width="2" height="1" fill="#000000" />
<rect x="27" y="48" width="1" height="1" fill="#0D0D0D" />
<rect x="28" y="48" width="1" height="1" fill="#000000" />
<rect x="29" y="48" width="1" height="1" fill="#272626" />
<rect x="30" y="48" width="1" height="1" fill="#000000" />
<rect x="33" y="48" width="1" height="2" fill="#000000" />
<rect x="35" y="48" width="2" height="1" fill="#000000" />
<rect x="39" y="48" width="1" height="3" fill="#000000" />
<rect x="40" y="48" width="2" height="1" fill="#0D0D0D" />
<rect x="15" y="49" width="1" height="1" fill="#0D0D0D" />
<rect x="19" y="49" width="1" height="2" fill="#000000" />
<rect x="21" y="49" width="2" height="1" fill="#000000" />
<rect x="23" y="49" width="1" height="2" fill="#0D0D0D" />
<rect x="25" y="49" width="1" height="1" fill="#272626" />
<rect x="26" y="49" width="2" height="1" fill="#000000" />
<rect x="28" y="49" width="1" height="1" fill="#272626" />
<rect x="29" y="49" width="1" height="3" fill="#000000" />
<rect x="30" y="49" width="2" height="1" fill="#0D0D0D" />
<rect x="32" y="49" width="1" height="3" fill="#000000" />
<rect x="34" y="49" width="1" height="1" fill="#272626" />
<rect x="35" y="49" width="2" height="1" fill="#0D0D0D" />
<rect x="40" y="49" width="1" height="1" fill="#0D0D0D" />
<rect x="41" y="49" width="1" height="1" fill="#000000" />
<rect x="21" y="50" width="1" height="2" fill="#000000" />
<rect x="22" y="50" width="1" height="1" fill="#0D0D0D" />
<rect x="24" y="50" width="1" height="1" fill="#0D0D0D" />
<rect x="25" y="50" width="1" height="3" fill="#000000" />
<rect x="26" y="50" width="1" height="1" fill="#272626" />
<rect x="27" y="50" width="1" height="1" fill="#0D0D0D" />
<rect x="28" y="50" width="1" height="2" fill="#000000" />
<rect x="30" y="50" width="1" height="2" fill="#000000" />
<rect x="31" y="50" width="1" height="1" fill="#272626" />
<rect x="33" y="50" width="1" height="1" fill="#272626" />
<rect x="34" y="50" width="2" height="2" fill="#000000" />
<rect x="36" y="50" width="3" height="1" fill="#0D0D0D" />
<rect x="40" y="50" width="1" height="1" fill="#000000" />
<rect x="45" y="50" width="1" height="1" fill="#0D0D0D" />
<rect x="18" y="51" width="1" height="1" fill="#000000" />
<rect x="19" y="51" width="1" height="1" fill="#0D0D0D" />
<rect x="22" y="51" width="3" height="2" fill="#000000" />
<rect x="26" y="51" width="1" height="2" fill="#0D0D0D" />
<rect x="27" y="51" width="1" height="2" fill="#000000" />
<rect x="31" y="51" width="1" height="1" fill="#000000" />
<rect x="33" y="51" width="1" height="1" fill="#0D0D0D" />
<rect x="36" y="51" width="2" height="1" fill="#000000" />
<rect x="16" y="52" width="1" height="1" fill="#0D0D0D" />
<rect x="20" y="52" width="1" height="1" fill="#0D0D0D" />
<rect x="38" y="52" width="1" height="1" fill="#0D0D0D" />
<rect x="43" y="52" width="1" height="1" fill="#0D0D0D" />
<rect x="21" y="53" width="1" height="2" fill="#0D0D0D" />
<rect x="27" y="53" width="1" height="1" fill="#0D0D0D" />
<rect x="33" y="53" width="1" height="1" fill="#0D0D0D" />
<rect x="19" y="54" width="1" height="1" fill="#0D0D0D" />
<rect x="24" y="54" width="1" height="2" fill="#0D0D0D" />
<rect x="28" y="55" width="1" height="1" fill="#0D0D0D" />
<rect x="32" y="55" width="1" height="2" fill="#0D0D0D" />
<rect x="27" y="56" width="1" height="1" fill="#0D0D0D" />
<rect x="38" y="56" width="1" height="1" fill="#0D0D0D" />
<rect x="41" y="56" width="1" height="1" fill="#0D0D0D" />
<rect x="26" y="57" width="1" height="1" fill="#0D0D0D" />
<rect x="29" y="60" width="1" height="1" fill="#0D0D0D" />
</svg>